<svg xmlns:xlink="http://www.w3.org/1999/xlink" width="220" height="101" viewBox="0 0 220 101" fill="none" xmlns="http://www.w3.org/2000/svg">
<g clip-path="url(#clip0)">
<path d="M64.4018 6.86948H22.8445C21.8226 6.86948 20.9941 7.70192 20.9941 8.72878V33.7931C20.9941 34.82 21.8226 35.6524 22.8445 35.6524H64.4018C65.4237 35.6524 66.2522 34.82 66.2522 33.7931V8.72878C66.2522 7.70192 65.4237 6.86948 64.4018 6.86948Z" fill="#FFD204"/>
<path opacity="0.88" d="M94.8432 0H53.2859C52.264 0 51.4355 0.832441 51.4355 1.85931V26.9236C51.4355 27.9505 52.264 28.783 53.2859 28.783H94.8432C95.8652 28.783 96.6936 27.9505 96.6936 26.9236V1.85931C96.6936 0.832441 95.8652 0 94.8432 0Z" fill="#2A317E"/>
<path d="M127.834 26.0061C126.175 26.0197 124.522 25.8125 122.918 25.3899C116.772 23.7163 113.136 18.0227 114.268 11.8528C114.629 9.7566 115.521 7.78913 116.859 6.13973C118.196 4.49033 119.933 3.21454 121.903 2.43514C124.699 1.32911 127.769 1.12412 130.686 1.84856C135.171 2.94639 138.888 6.74035 139.523 10.8706C139.616 11.7508 139.645 12.6367 139.609 13.521L139.528 16.4351L120.494 16.3894C121.18 17.9204 122.572 19.0963 124.476 19.6183C127.315 20.3932 131.131 20.0569 136.141 18.5931L137.804 24.3378C135.112 25.1235 131.521 26.0061 127.834 26.0061ZM121.118 10.3998L133.125 10.4294C132.234 9.05262 130.861 8.06182 129.277 7.65251C127.572 7.221 125.775 7.3329 124.136 7.97271C122.905 8.45689 121.851 9.30982 121.118 10.4159V10.3998Z" fill="#FFD204"/>
<path d="M167.449 26.0061H161.497V24.2598C152.483 28.1937 146.645 24.1872 146.369 23.9907L146.278 23.9208C144.509 22.5617 143.151 20.7339 142.358 18.6426C141.565 16.5513 141.367 14.2793 141.788 12.0815C142.093 10.4309 142.725 8.85852 143.644 7.45693C144.564 6.05533 145.754 4.85289 147.143 3.92042C148.742 2.85227 150.535 2.1122 152.419 1.74278C154.303 1.37335 156.242 1.38187 158.122 1.76782C165.754 3.315 167.548 9.17007 167.436 12.1326L167.449 26.0061ZM149.818 19.107C150.196 19.3357 154.454 21.744 161.488 17.5302V12.068C161.488 12.0169 161.488 11.9631 161.488 11.9119C161.488 11.4007 161.304 8.51353 156.936 7.63096C154.701 7.17567 152.378 7.62117 150.467 8.8714C149.727 9.35835 149.093 9.9909 148.603 10.7308C148.113 11.4708 147.778 12.3028 147.617 13.1766C147.4 14.273 147.49 15.4086 147.879 16.4562C148.268 17.5037 148.939 18.4216 149.818 19.107Z" fill="#FFD204"/>
<path d="M180.903 26.033C179.024 26.0481 177.156 25.7358 175.382 25.1101C172.072 23.9019 169.938 21.0739 169.525 17.3688L175.443 16.7069C175.682 18.8595 176.989 19.333 177.417 19.4891C179.538 20.264 182.505 20.229 184.786 19.403C185.876 19.0101 186.602 18.2809 186.661 18.0173C186.562 17.8343 185.857 17.2558 184.288 16.8629C182.815 16.4943 181.182 16.4324 179.468 16.3678L179.125 16.3544C177.039 16.2736 175.331 15.8458 173.904 15.0467C171.469 13.6851 170.037 11.2554 170.155 8.70995C170.342 4.9429 173.657 2.13107 178.598 1.55794C180.079 1.38574 183.865 1.14087 187.124 2.55889C188.468 3.1502 189.625 4.10198 190.467 5.30989C191.308 6.51781 191.803 7.93524 191.896 9.40685L185.97 9.832C185.954 9.45182 185.833 9.08359 185.621 8.76852C185.408 8.45346 185.113 8.20399 184.768 8.04803C183.464 7.48028 181.316 7.26502 179.291 7.50988C177.532 7.71438 176.137 8.48931 176.11 9.01939C176.11 9.25886 176.378 9.60059 176.804 9.82661C177.39 10.1549 178.226 10.3379 179.356 10.3809H179.69C181.648 10.4536 183.67 10.5316 185.748 11.0509C189.015 11.8743 191.232 13.4941 192.158 15.7382C192.476 16.4854 192.636 17.2908 192.627 18.1034C192.618 18.9159 192.441 19.7177 192.108 20.4578C190.82 23.3853 187.724 24.693 186.805 25.032C184.91 25.7024 182.913 26.041 180.903 26.033Z" fill="#FFD204"/>
<path d="M210.435 38.8571H197.094V32.8729H210.459C210.954 32.8729 212.475 32.6926 213.313 31.8504C213.493 31.6701 214.044 31.1185 214.039 29.601C214.018 23.24 214.039 11.7747 214.039 11.659H219.992C219.992 11.7747 219.97 23.2293 219.992 29.5714C219.992 32.924 218.623 34.9878 217.464 36.1287C214.856 38.7065 211.238 38.8571 210.435 38.8571Z" fill="#FFD204"/>
<path d="M207.052 26.033C202.92 26.033 199.696 24.8975 197.471 22.6561C194.102 19.2604 194.113 14.3498 194.115 12.251C194.115 8.07226 194.115 1.46646 194.115 1.46646H200.071C200.071 1.46646 200.071 8.08571 200.071 12.2725C200.071 14.6242 200.256 17.0002 201.678 18.437C202.749 19.5133 204.551 20.0515 207.033 20.0515C207.269 20.0515 207.502 20.0515 207.738 20.0326C209.109 19.9573 211.005 19.586 212.258 18.246C213.07 17.3216 213.61 16.1889 213.819 14.974C213.954 14.2256 214.021 13.4664 214.02 12.7057C214.041 11.4545 214.02 10.1603 214.02 8.90908C214.02 8.06418 214.001 7.21929 214.001 6.37439V1.46378H219.951V6.36363C219.951 7.18431 219.951 8.00499 219.97 8.82566C219.986 10.1199 220.002 11.4599 219.97 12.7972C219.967 13.9184 219.862 15.037 219.657 16.1391C219.235 18.4472 218.179 20.5908 216.609 22.3278C214.553 24.5289 211.604 25.7962 208.08 25.9927C207.738 26.0115 207.392 26.0222 207.047 26.0222L207.052 26.033Z" fill="#FFD204"/>
<path d="M98.8581 75.9679C98.8581 75.9679 98.8581 69.6205 98.8581 65.3879C98.8581 63.7896 98.8581 60.0468 97.2729 58.4431C97.0372 58.2036 96.3169 57.4798 94.3487 57.4798C92.742 57.4798 92.0056 58.0852 91.5825 58.54C89.9195 60.3347 89.7803 64.0291 89.8606 65.1807C89.8606 65.2507 89.8606 65.3233 89.8606 65.3933V75.9652H83.9158V65.4875C83.8515 64.3574 83.6828 58.287 87.2256 54.4554C89.0224 52.5154 91.4861 51.4956 94.346 51.4956C97.2916 51.4956 99.7016 52.4104 101.482 54.2132C104.832 57.574 104.816 62.8694 104.811 65.396C104.811 69.6232 104.811 75.9599 104.811 75.9599L98.8581 75.9679Z" fill="#2A317E"/>
<path d="M113.819 75.9679C113.819 75.9679 113.819 69.6205 113.819 65.3879C113.819 63.7896 113.819 60.0468 112.234 58.4431C111.998 58.2036 111.278 57.4798 109.312 57.4798C107.705 57.4798 106.969 58.0852 106.549 58.54C104.886 60.3347 104.744 64.0291 104.827 65.1807C104.827 65.2507 104.827 65.3233 104.827 65.3933V75.9652H98.8766V65.4875C98.8123 64.3574 98.6463 58.287 102.189 54.4554C103.986 52.5154 106.447 51.4956 109.307 51.4956C112.252 51.4956 114.649 52.4104 116.443 54.2132C119.782 57.5713 119.772 62.8559 119.769 65.3933C119.769 69.6205 119.769 75.9572 119.769 75.9572L113.819 75.9679Z" fill="#2A317E"/>
<path d="M187.664 76.0002C185.643 76.0002 182.994 75.9195 180.777 74.1651C177.202 71.3345 177.328 66.4373 177.414 63.1949V62.8532V38.6741H183.366V62.9635V63.351C183.31 65.5198 183.233 68.493 184.462 69.4671C185.166 70.0241 186.521 70.0214 187.962 70.0187H188.254C190.506 70.0187 192.833 69.9057 195.082 69.798H195.302L195.585 75.7742H195.366C193.047 75.8872 190.65 76.0029 188.254 76.0029H187.667L187.664 76.0002Z" fill="#2A317E"/>
<path d="M189.35 51.4122H180.363V57.3937H189.35V51.4122Z" fill="#2A317E"/>
<path d="M53.666 75.9679H47.7131V74.2405C38.6969 78.1824 32.8592 74.1651 32.5834 73.9714L32.4924 73.9041C30.7254 72.5422 29.37 70.7136 28.5775 68.6225C27.785 66.5314 27.5865 64.26 28.0043 62.0621C28.3115 60.4063 28.9458 58.829 29.8698 57.4236C30.7939 56.0182 31.9888 54.8131 33.3841 53.8796C34.9825 52.8111 36.7754 52.0709 38.6597 51.7015C40.5439 51.332 42.4823 51.3407 44.3632 51.727C51.9923 53.2795 53.7865 59.1427 53.674 62.1106L53.666 75.9679ZM36.0458 69.1011C36.4234 69.3299 40.6785 71.7435 47.7131 67.519V62.0406C47.7131 61.9895 47.7131 61.9357 47.7131 61.8845C47.7131 61.3679 47.5284 58.47 43.1608 57.5793C40.9318 57.1343 38.618 57.5844 36.7153 58.8332C35.9766 59.321 35.3436 59.9539 34.8544 60.6937C34.3652 61.4335 34.03 62.2651 33.8688 63.1384C33.6449 64.2374 33.7299 65.3773 34.1145 66.4305C34.499 67.4836 35.1678 68.4084 36.0458 69.1011Z" fill="#2A317E"/>
<path d="M72.1854 88.7463H58.8418V82.7648H72.2095C72.7049 82.7648 74.2286 82.5818 75.0668 81.7423C75.2462 81.562 75.7925 81.0131 75.7871 79.5063C75.7657 73.1588 75.7871 61.7204 75.7871 61.6047H81.7399C81.7399 61.7204 81.7185 73.1427 81.7399 79.4767C81.7399 82.8186 80.3743 84.8797 79.2174 86.0179C76.6092 88.5984 72.9861 88.7463 72.1854 88.7463Z" fill="#2A317E"/>
<path d="M68.7989 75.9518C64.667 75.9518 61.4402 74.8163 59.2176 72.5749C55.8516 69.1873 55.8623 64.2874 55.8676 62.1967C55.8676 58.026 55.8676 51.4337 55.8676 51.4337H61.8205C61.8205 51.4337 61.8205 58.0368 61.8205 62.2155C61.8205 64.5565 62.0052 66.9217 63.4272 68.3558C64.4983 69.4321 66.3032 69.9703 68.7989 69.9703C69.0345 69.9703 69.2675 69.9703 69.5032 69.9487C70.8769 69.8734 72.7728 69.5021 74.026 68.1675C74.833 67.2429 75.3679 66.1109 75.5711 64.8982C75.7075 64.1527 75.7747 63.396 75.772 62.638C75.7934 61.3895 75.772 60.0952 75.772 58.8467C75.772 58.0045 75.7506 57.1623 75.7506 56.3201V51.431H81.7034V56.3201C81.7034 57.1273 81.7034 57.9561 81.7221 58.7741C81.7382 60.0656 81.7543 61.4029 81.7221 62.7429C81.7165 63.8615 81.6107 64.9772 81.4061 66.0768C80.9846 68.3849 79.929 70.5285 78.3588 72.2655C76.2995 74.4611 73.3512 75.7258 69.8299 75.9195C69.4871 75.9384 69.1417 75.9491 68.7989 75.9491V75.9518Z" fill="#2A317E"/>
<path d="M169.129 75.9679C169.129 75.9679 169.129 69.3272 169.129 65.1753C169.129 62.8586 168.944 60.5203 167.522 59.0996C166.451 58.0233 164.644 57.4852 162.137 57.4852C161.899 57.4852 161.663 57.4852 161.428 57.504C160.059 57.5794 158.158 57.9507 156.905 59.2772C156.104 60.1897 155.571 61.3074 155.365 62.5061C155.232 63.2475 155.169 63.9997 155.175 64.7529C155.154 65.9906 155.175 67.2714 155.175 68.5199C155.175 69.3595 155.196 70.199 155.196 71.0412V75.976H149.246V71.0277C149.246 70.2205 149.246 69.3944 149.228 68.5791C149.211 67.2983 149.195 65.9718 149.228 64.6453C149.233 63.5303 149.339 62.4181 149.544 61.3222C149.968 59.0206 151.027 56.8849 152.599 55.1577C154.656 52.9782 157.604 51.7216 161.12 51.5252C161.468 51.5063 161.811 51.4983 162.153 51.4983C166.299 51.4983 169.528 52.6338 171.753 54.8725C175.103 58.2467 175.09 63.1115 175.087 65.1888C175.087 69.3299 175.087 75.9518 175.087 75.9518L169.129 75.9679Z" fill="#2A317E"/>
<path d="M208.277 75.976C206.399 75.9906 204.533 75.6793 202.761 75.0558C199.451 73.8503 197.317 71.0331 196.904 67.3279L202.822 66.6633C203.058 68.8025 204.362 69.2787 204.791 69.4348C206.914 70.2071 209.878 70.1748 212.165 69.3487C213.236 68.9585 213.978 68.232 214.04 67.9683C213.941 67.7961 213.236 67.2203 211.67 66.8275C210.192 66.4588 208.561 66.3969 206.831 66.3324L206.491 66.3189C204.402 66.2382 202.694 65.8131 201.272 65.0166C198.835 63.6551 197.402 61.228 197.523 58.6853C197.71 54.9182 201.025 52.1144 205.969 51.544C207.447 51.3718 211.233 51.1269 214.49 52.5423C215.835 53.1289 216.994 54.0765 217.839 55.2811C218.684 56.4857 219.183 57.9009 219.28 59.3714L213.341 59.7965C213.325 59.4178 213.203 59.0512 212.991 58.738C212.778 58.4247 212.483 58.1772 212.139 58.0233C210.834 57.4583 208.684 57.2457 206.665 57.4852C204.903 57.6897 203.508 58.4592 203.481 58.9839C203.481 59.2207 203.749 59.5571 204.172 59.7912C204.758 60.1194 205.597 60.2997 206.727 60.3428H207.064C209.019 60.4181 211.041 60.4934 213.116 61.0128C216.386 61.8334 218.603 63.4506 219.543 65.692C219.86 66.4377 220.02 67.2417 220.012 68.0528C220.004 68.8639 219.827 69.6645 219.495 70.4035C218.206 73.3283 215.108 74.6387 214.19 74.9778C212.29 75.6458 210.29 75.9834 208.277 75.976Z" fill="#2A317E"/>
<path d="M135.492 75.9868C133.834 76.001 132.181 75.7947 130.576 75.3733C124.43 73.6996 120.794 68.006 121.926 61.8361C122.288 59.7401 123.18 57.7729 124.517 56.1236C125.854 54.4743 127.591 53.1983 129.561 52.4185C132.357 51.3114 135.427 51.1073 138.344 51.8346C142.83 52.9297 146.544 56.7237 147.181 60.854C147.271 61.7344 147.298 62.6201 147.264 63.5044L147.181 66.4185L128.15 66.3673C128.835 67.9011 130.228 69.0742 132.134 69.5962C134.973 70.3685 138.786 70.0321 143.796 68.5684L145.459 74.3131C142.771 75.1015 139.18 75.9868 135.492 75.9868ZM128.776 60.3939L140.784 60.4208C139.892 59.0441 138.519 58.0541 136.936 57.6466C135.23 57.213 133.432 57.3239 131.792 57.9641C130.563 58.4458 129.511 59.2937 128.776 60.3939Z" fill="#2A317E"/>
<path d="M0.00466423 88.749V62.1106C-0.105127 59.1508 1.68634 53.2849 9.31817 51.735C11.1991 51.3491 13.1374 51.3406 15.0216 51.71C16.9058 52.0794 18.6987 52.8195 20.2973 53.8876C21.6917 54.82 22.886 56.0238 23.8096 57.4278C24.7331 58.8319 25.3672 60.4077 25.6744 62.0622C26.0929 64.2599 25.8945 66.5314 25.1014 68.6223C24.3083 70.7132 22.9518 72.5411 21.1836 73.9015C21.1542 73.9257 21.1247 73.9499 21.0926 73.9714C20.8248 74.1652 14.9791 78.1771 5.96552 74.2405V88.7706L0.00466423 88.749ZM5.95748 67.5055C12.9814 71.7246 17.266 69.3272 17.6221 69.0877C18.5017 68.3989 19.1727 67.4772 19.5597 66.4262C19.9466 65.3753 20.0342 64.2367 19.8126 63.1385C19.6509 62.2643 19.3145 61.4322 18.8239 60.6922C18.3333 59.9523 17.6986 59.3199 16.958 58.8333C15.048 57.5852 12.727 57.1399 10.4937 57.5928C5.83431 58.54 5.94142 61.75 5.94142 61.8846C5.94142 61.9384 5.94142 61.9895 5.94142 62.0406L5.95748 67.5055Z" fill="#2A317E"/>
<path d="M202.953 96.5038C202.432 96.5095 201.913 96.4444 201.41 96.31C200.545 96.0912 199.797 95.5471 199.32 94.7901C198.843 94.0331 198.673 93.1209 198.845 92.2416C198.951 91.6094 199.216 91.0149 199.615 90.5143C200.014 90.0138 200.533 89.6238 201.124 89.3814C201.975 89.0374 202.913 88.9743 203.802 89.2011C204.942 89.4863 206.212 90.498 206.415 91.8918C206.44 92.1647 206.447 92.4388 206.437 92.7125V93.1619L199.723 93.1457C199.768 93.6837 199.979 94.1941 200.328 94.6046C200.677 95.015 201.146 95.3048 201.667 95.4329C203.103 95.8284 204.814 95.414 205.979 95.0696L206.247 95.9522C205.18 96.2918 204.071 96.4776 202.953 96.5038ZM199.788 92.1986L205.521 92.212C205.521 92.1232 205.521 92.0479 205.521 92.0021C205.392 91.1492 204.565 90.3204 203.595 90.0809C202.896 89.8995 202.156 89.9475 201.485 90.2182C201.065 90.3869 200.691 90.6549 200.395 90.9997C200.1 91.3444 199.891 91.7557 199.788 92.1986Z" fill="#2A317E"/>
<path d="M216.498 96.5038C215.977 96.5085 215.457 96.4424 214.953 96.3074C214.09 96.0844 213.344 95.5386 212.867 94.7814C212.391 94.0242 212.22 93.1129 212.39 92.2336C212.494 91.5998 212.758 91.0035 213.157 90.5017C213.556 90 214.077 89.6095 214.669 89.3679C215.52 89.024 216.458 88.9608 217.347 89.1876C218.488 89.4728 219.757 90.4846 219.961 91.8784C219.984 92.1467 219.992 92.4163 219.982 92.6856L219.969 93.1349L213.255 93.1188C213.298 93.6579 213.509 94.1697 213.858 94.5813C214.207 94.9929 214.677 95.2834 215.199 95.4113C216.632 95.8096 218.346 95.3952 219.508 95.0481L219.776 95.9333C218.716 96.2779 217.612 96.4699 216.498 96.5038ZM213.333 92.1986H219.066C219.066 92.1098 219.066 92.0317 219.066 91.9887C218.938 91.1303 218.108 90.3016 217.141 90.0594C216.441 89.8806 215.702 89.9286 215.031 90.1966C214.606 90.3662 214.228 90.637 213.93 90.9857C213.632 91.3344 213.422 91.7506 213.32 92.1986H213.333Z" fill="#2A317E"/>
<path d="M154.601 96.4876C153.779 96.5129 152.97 96.2807 152.285 95.823C151.758 95.4142 151.354 94.8667 151.117 94.2412C150.881 93.6157 150.822 92.9366 150.946 92.2793C151.038 91.7787 151.228 91.3018 151.507 90.8769C151.786 90.4521 152.147 90.088 152.569 89.8065C153.054 89.4825 153.598 89.2583 154.17 89.147C154.742 89.0357 155.33 89.0395 155.9 89.158C158.174 89.6235 158.693 91.3456 158.648 92.1932V96.4769H157.732V95.5835C156.782 96.1483 155.705 96.4595 154.601 96.4876ZM155.014 89.9894C154.329 89.9863 153.658 90.1887 153.089 90.5707C152.766 90.7836 152.491 91.0605 152.279 91.3845C152.067 91.7084 151.923 92.0724 151.857 92.4542C151.761 92.9438 151.803 93.4504 151.977 93.9175C152.152 94.3846 152.452 94.7937 152.845 95.0992C152.917 95.153 154.719 96.4446 157.74 94.518V92.177C157.74 91.986 157.74 90.4819 155.726 90.0702C155.492 90.0192 155.253 89.9922 155.014 89.9894Z" fill="#2A317E"/>
<path d="M166.719 96.4768C166.719 96.4768 166.719 94.3242 166.719 92.9789C166.719 92.1447 166.644 91.2918 166.055 90.6998C165.581 90.2208 164.807 89.9787 163.755 89.9787H163.487C162.909 90.011 162.103 90.1643 161.543 90.7213C161.201 91.0777 160.971 91.5266 160.879 92.0129C160.826 92.2786 160.799 92.549 160.799 92.8201C160.799 93.2318 160.799 93.6273 160.799 94.0525C160.799 94.3216 160.799 94.5906 160.799 94.8597V96.458H159.883V94.8893C159.883 94.6202 159.883 94.3511 159.883 94.0821C159.883 93.6623 159.883 93.2426 159.883 92.8228C159.885 92.4903 159.918 92.1588 159.982 91.8326C160.11 91.1719 160.428 90.5632 160.895 90.0809C161.59 89.441 162.496 89.0816 163.439 89.0719H163.76C165.064 89.0719 166.058 89.4056 166.706 90.0648C167.643 91.0092 167.638 92.3519 167.638 92.9977C167.638 94.3431 167.638 96.4957 167.638 96.4957L166.719 96.4768Z" fill="#2A317E"/>
<path d="M173.673 101H169.1V100.077H173.652C173.668 100.077 174.549 100.077 175.071 99.5658C175.212 99.418 175.32 99.2424 175.389 99.0501C175.458 98.8578 175.487 98.6531 175.473 98.4492C175.473 96.2966 175.473 92.4649 175.473 92.4649H176.391C176.391 92.4649 176.391 96.2993 176.391 98.4411C176.406 98.7695 176.354 99.0975 176.237 99.4044C176.12 99.7114 175.941 99.9908 175.711 100.225C174.967 100.968 173.855 101 173.673 101Z" fill="#2A317E"/>
<path d="M172.514 96.4876C171.212 96.4876 170.221 96.154 169.568 95.4947C168.628 94.5476 168.631 93.1941 168.631 92.5349C168.631 91.1895 168.631 89.0531 168.631 89.0531H169.549C169.549 89.0531 169.549 91.1868 169.549 92.5376C169.549 93.3798 169.627 94.2408 170.216 94.8355C170.693 95.3144 171.467 95.5566 172.514 95.5566H172.781C173.357 95.527 174.163 95.3737 174.723 94.8113C175.065 94.4514 175.296 94.0002 175.39 93.5116C175.44 93.2456 175.466 92.9753 175.467 92.7044C175.467 92.2927 175.467 91.881 175.467 91.4694C175.467 91.1985 175.467 90.9294 175.467 90.6621V89.08H176.386V90.6621C176.386 90.9312 176.386 91.2003 176.386 91.4694C176.386 91.8918 176.386 92.3143 176.386 92.7367C176.385 93.07 176.353 93.4025 176.289 93.7296C176.159 94.3925 175.841 95.0035 175.374 95.4893C174.68 96.133 173.774 96.4946 172.83 96.5038H172.508L172.514 96.4876Z" fill="#2A317E"/>
<path d="M185.715 96.5037C185.332 96.5234 184.949 96.4651 184.588 96.3324C184.228 96.1997 183.898 95.9953 183.618 95.7315C182.679 94.7844 182.681 93.2426 182.684 92.5026V89.0585H183.6C183.6 89.0585 183.6 91.1169 183.6 92.4919C183.6 93.108 183.6 94.3754 184.269 95.0669C184.464 95.2442 184.693 95.38 184.941 95.466C185.19 95.552 185.453 95.5865 185.715 95.5674C185.976 95.5827 186.238 95.5411 186.481 95.4455C186.725 95.3498 186.945 95.2023 187.126 95.0131C187.796 94.2866 187.855 92.9708 187.823 92.5241C187.821 92.5125 187.821 92.5008 187.823 92.4892V89.0585H188.741V92.4676C188.741 92.6856 188.832 94.5126 187.801 95.632C187.534 95.9144 187.21 96.1364 186.851 96.283C186.492 96.4296 186.105 96.4975 185.718 96.4822L185.715 96.5037Z" fill="#2A317E"/>
<path d="M180.571 96.5037C180.188 96.5234 179.805 96.4651 179.444 96.3324C179.084 96.1997 178.754 95.9953 178.474 95.7315C177.534 94.7844 177.537 93.2426 177.537 92.5026C177.537 91.1303 177.537 89.0719 177.537 89.0719H178.456C178.456 89.0719 178.456 91.1303 178.456 92.5053C178.456 93.1215 178.456 94.3888 179.125 95.0804C179.32 95.2577 179.549 95.3934 179.797 95.4795C180.046 95.5655 180.309 95.6 180.571 95.5808C180.831 95.5975 181.091 95.5581 181.333 95.4653C181.576 95.3724 181.797 95.2283 181.98 95.0427C182.783 94.1736 182.679 92.5672 182.676 92.551V89.0585H183.594V92.4676C183.594 92.6856 183.685 94.5126 182.654 95.632C182.387 95.9144 182.063 96.1364 181.704 96.283C181.345 96.4296 180.959 96.4975 180.571 96.4822V96.5037Z" fill="#2A317E"/>
<path d="M191.195 94.4319H190.279C190.279 94.3485 190.279 85.8807 190.279 83.7066H191.195C191.203 85.878 191.195 94.3512 191.195 94.4319Z" fill="#2A317E"/>
<path d="M197.129 96.4742C197.129 96.4742 197.129 94.3431 197.129 92.995C197.129 92.1555 197.052 91.2998 196.463 90.7052C195.989 90.2262 195.215 89.9841 194.165 89.9841C194.074 89.9841 193.983 89.9841 193.897 89.9841C193.319 90.0164 192.513 90.1697 191.953 90.7294C191.611 91.0875 191.38 91.5382 191.289 92.0263C191.238 92.2924 191.211 92.5626 191.209 92.8336C191.209 93.2452 191.209 93.6569 191.209 94.0713C191.209 94.3404 191.209 94.6095 191.209 94.8785V96.458H190.293V94.8893C190.293 94.6202 190.293 94.3512 190.293 94.0821C190.293 93.6596 190.293 93.2399 190.293 92.8174C190.294 92.484 190.327 92.1514 190.392 91.8245C190.521 91.1626 190.839 90.5524 191.305 90.0675C191.999 89.4257 192.906 89.0652 193.849 89.0558H194.17C195.472 89.0558 196.465 89.3894 197.116 90.0486C198.056 90.9958 198.051 92.3439 198.051 92.9923C198.051 94.3377 198.051 96.4688 198.051 96.4688L197.129 96.4742Z" fill="#2A317E"/>
<path d="M208.465 96.4876H207.554V91.5178C207.528 90.8989 207.485 89.8657 208.553 89.349C209.15 89.0584 209.892 89.0558 210.53 89.0611H210.607C211.381 89.0611 211.411 89.0611 212.128 89.0827H212.214L212.187 90.0056H212.104C211.397 89.9841 211.37 89.9841 210.61 89.9841H210.516C209.94 89.9841 209.349 89.9841 208.939 90.1805C208.452 90.4173 208.433 90.829 208.46 91.4774V96.4876H208.465Z" fill="#2A317E"/>
<path d="M90.9554 96.5038C90.133 96.5288 89.3233 96.2956 88.639 95.8365C88.1114 95.4268 87.707 94.8784 87.4707 94.2519C87.2344 93.6255 87.1753 92.9455 87.3001 92.2874C87.392 91.7866 87.583 91.3095 87.8617 90.8843C88.1405 90.459 88.5013 90.0944 88.9229 89.8119C89.4084 89.4878 89.953 89.2636 90.5252 89.1523C91.0975 89.041 91.686 89.0447 92.2568 89.1634C94.5276 89.6289 95.0471 91.3537 95.0043 92.2012V96.493H94.0938V95.597C93.1421 96.164 92.0615 96.4763 90.9554 96.5038ZM91.3678 89.9948C90.6836 89.992 90.0141 90.1944 89.4451 90.576C89.1228 90.7893 88.8471 91.0663 88.6349 91.3901C88.4226 91.7139 88.2783 92.0778 88.2106 92.4595C88.116 92.9503 88.1582 93.4578 88.3326 93.926C88.5069 94.3942 88.8067 94.8049 89.1987 95.1126C89.271 95.1665 91.0732 96.458 94.0938 94.5287V92.1824C94.0938 91.9941 94.0938 90.4845 92.0801 90.0728C91.8462 90.0192 91.6076 89.9894 91.3678 89.9841V89.9948Z" fill="#2A317E"/>
<path d="M103.224 96.4876C103.224 96.4876 103.224 94.335 103.224 92.9896C103.224 92.1528 103.149 91.2972 102.56 90.7052C102.086 90.2262 101.312 89.9841 100.26 89.9841H99.9923C99.4139 90.0164 98.6079 90.1697 98.0482 90.7267C97.7069 91.0845 97.4762 91.5341 97.3841 92.021C97.332 92.2868 97.306 92.5572 97.3064 92.8282C97.3064 93.2399 97.3064 93.6516 97.3064 94.0605C97.3064 94.3296 97.3064 94.5987 97.3064 94.8678V96.4822H96.3906V94.8678C96.3906 94.5987 96.3906 94.3296 96.3906 94.0605C96.3906 93.6381 96.3906 93.2183 96.3906 92.7986C96.3923 92.4661 96.4254 92.1345 96.4897 91.8084C96.6184 91.1465 96.9367 90.5367 97.4055 90.054C98.0984 89.4117 99.0041 89.0511 99.9468 89.0423C100.054 89.0423 100.161 89.0423 100.271 89.0423C101.575 89.0423 102.566 89.376 103.216 90.0352C104.154 90.9797 104.151 92.325 104.148 92.9735C104.148 94.3189 104.148 96.4715 104.148 96.4715L103.224 96.4876Z" fill="#2A317E"/>
<path d="M110.189 101H105.602V100.077H110.17C110.189 100.077 111.067 100.077 111.589 99.5658C111.73 99.418 111.838 99.2424 111.907 99.0501C111.976 98.8578 112.005 98.6531 111.991 98.4492C111.991 96.2966 111.991 92.4649 111.991 92.4649H112.909C112.909 92.4649 112.909 96.2993 112.909 98.4411C112.924 98.7695 112.872 99.0975 112.755 99.4044C112.638 99.7114 112.459 99.9908 112.229 100.225C111.477 100.968 110.365 101 110.189 101Z" fill="#2A317E"/>
<path d="M109.023 96.4876C107.725 96.4876 106.731 96.154 106.078 95.4947C105.138 94.5476 105.141 93.1941 105.141 92.5349C105.141 91.1895 105.141 89.0531 105.141 89.0531H106.059C106.059 89.0531 106.059 91.1868 106.059 92.5376C106.059 93.3798 106.137 94.2408 106.726 94.8355C107.203 95.3144 107.976 95.5566 109.023 95.5566C109.115 95.5566 109.208 95.5566 109.291 95.5566C109.867 95.527 110.673 95.3736 111.233 94.8113C111.575 94.4514 111.806 94.0002 111.899 93.5116C111.952 93.2458 111.978 92.9754 111.977 92.7044C111.977 92.2927 111.977 91.8811 111.977 91.4667C111.977 91.1976 111.977 90.9285 111.977 90.6595V89.0773H112.896V90.6595C112.896 90.9285 112.896 91.1976 112.896 91.4667C112.896 91.8891 112.896 92.3116 112.896 92.734C112.894 93.0674 112.861 93.3998 112.797 93.7269C112.666 94.3898 112.348 95.0008 111.881 95.4866C111.188 96.1308 110.281 96.4924 109.337 96.5011H109.015L109.023 96.4876Z" fill="#2A317E"/>
<path d="M117.348 96.4769C116.66 96.4769 115.894 96.45 115.259 95.971C114.188 95.1638 114.242 93.7134 114.271 92.6479V84.1909H115.19V92.6721C115.166 93.587 115.136 94.7225 115.814 95.2337C116.24 95.5566 116.866 95.5539 117.471 95.5539H117.576C118.395 95.5539 119.236 95.5163 120.047 95.4786H120.152L120.195 96.3988H120.09C119.268 96.4365 118.417 96.4742 117.576 96.4742H117.351L117.348 96.4769Z" fill="#2A317E"/>
<path d="M117.969 89.0531H114.721V89.976H117.969V89.0531Z" fill="#2A317E"/>
<path d="M122.497 89.0638H121.578V96.4903H122.497V89.0638Z" fill="#2A317E"/>
<path d="M128.876 96.4876C128.876 96.4876 128.876 94.4292 128.876 93.0542C128.876 92.438 128.876 91.1707 128.207 90.4792C128.013 90.3008 127.784 90.1642 127.536 90.0777C127.287 89.9912 127.023 89.9566 126.761 89.976C126.5 89.9621 126.24 90.0043 125.997 90.1C125.754 90.1956 125.534 90.3423 125.352 90.5303C124.549 91.3994 124.653 93.0058 124.656 93.0219V96.4876H123.74V93.0704C123.724 92.8524 123.647 91.0254 124.678 89.906C124.944 89.623 125.268 89.4007 125.627 89.254C125.987 89.1074 126.373 89.0397 126.761 89.0558C127.144 89.0355 127.528 89.0935 127.888 89.2262C128.248 89.3589 128.578 89.5637 128.858 89.828C129.798 90.7751 129.795 92.3169 129.795 93.0569C129.795 94.4292 129.795 96.4876 129.795 96.4876H128.876Z" fill="#2A317E"/>
<path d="M134.021 96.4876C134.021 96.4876 134.021 94.4292 134.021 93.0542C134.021 92.438 134.021 91.1707 133.351 90.4792C133.157 90.3008 132.929 90.1642 132.68 90.0777C132.431 89.9912 132.168 89.9566 131.905 89.976C131.645 89.9617 131.384 90.0041 131.141 90.1002C130.898 90.1963 130.678 90.3439 130.497 90.533C129.825 91.2595 129.766 92.5753 129.801 93.0219V96.4876H128.885V93.0704C128.869 92.8524 128.791 91.0254 129.822 89.906C130.089 89.623 130.413 89.4007 130.772 89.254C131.131 89.1074 131.518 89.0397 131.905 89.0558C132.289 89.0355 132.672 89.0935 133.032 89.2262C133.393 89.3589 133.723 89.5637 134.002 89.828C134.942 90.7751 134.939 92.3169 134.939 93.0569C134.939 94.4292 134.939 96.4876 134.939 96.4876H134.021Z" fill="#2A317E"/>
<path d="M140.335 96.4876C139.814 96.492 139.294 96.4269 138.79 96.2939C137.926 96.0751 137.179 95.5318 136.702 94.776C136.225 94.0202 136.054 93.1093 136.225 92.2309C136.331 91.5986 136.596 91.0041 136.995 90.5036C137.394 90.0031 137.913 89.6131 138.504 89.3706C139.355 89.0294 140.293 88.9672 141.182 89.193C142.32 89.4621 143.592 90.4873 143.792 91.8703C143.817 92.1431 143.824 92.4172 143.814 92.691V93.1403L137.098 93.1242C137.142 93.6611 137.354 94.1703 137.703 94.5794C138.052 94.9885 138.521 95.2768 139.042 95.4033C140.477 95.8015 142.188 95.3871 143.353 95.0427L143.621 95.9253C142.558 96.2679 141.452 96.4572 140.335 96.4876ZM137.17 92.1986H142.901C142.905 92.1296 142.905 92.0604 142.901 91.9914C142.772 91.1384 141.945 90.3124 140.975 90.0702C140.276 89.8914 139.538 89.9394 138.868 90.2074C138.446 90.3771 138.071 90.6468 137.776 90.9936C137.48 91.3403 137.272 91.7537 137.17 92.1986Z" fill="#2A317E"/>
<path d="M145.381 95.6364L144.834 97.9424L145.727 98.1563L146.274 95.8503L145.381 95.6364Z" fill="#2A317E"/>
<path d="M122.497 87.2207H121.578V88.1436H122.497V87.2207Z" fill="#2A317E"/>
</g>
<defs>
<clipPath id="clip0">
<rect width="220" height="101" fill="white"/>
</clipPath>
</defs>
</svg>